<?xml version="1.0" encoding="iso-8859-1"?>
<!-- Generator: Adobe Illustrator 18.1.1, SVG Export Plug-In . SVG Version: 6.00 Build 0)  -->
<svg version="1.1" id="Capa_1" xmlns="http://www.w3.org/2000/svg" xmlns:xlink="http://www.w3.org/1999/xlink" x="0px" y="0px"
	 viewBox="0 0 492.429 492.429" style="enable-background:new 0 0 492.429 492.429;" xml:space="preserve">
<g>
	<g>
		<path style="fill:#010002;" d="M377.148,142.428c1.318,15.333,0.15,30.667-3.5,46c-3.671,15.333-7.837,26.667-12.5,34l-6,10
			c0.666-12,0-26.167-2-42.5s-4.334-29.5-7-39.5l-4-15c-5.334-1.333-10.668-2-16-2c-5.334,0-10.334,0.333-15,1l-6,1
			c1.328,20-1.838,39-9.5,57c-7.668,18-16.5,31.333-26.5,40c2-16.667,2.666-31.333,2-44c-0.668-12.667-2-23-4-31l-3-11
			c-6.668-2-14.5-3.167-23.5-3.5s-16.5-0.167-22.5,0.5h-9c2,16,1.167,31.5-2.5,46.5s-7.833,26.167-12.5,33.5l-7,11
			c2-10.667,1.667-23-1-37s-5.333-25-8-33l-5-13c-5.333,0-11.5,0.333-18.5,1c-7,0.672-12.833,1.338-17.5,2l-7,1
			c4,7.333,6.333,17.667,7,31s0,24.667-2,34l-2,15c-2.667-13.333-6.667-26-12-38s-10.333-20.333-15-25l-6-8
			c-34.667,14.667-60.333,31.167-77,49.5s-24.333,35.333-23,51s7.667,30,19,43s26.333,22.833,45,29.5
			c38,13.333,97.667,20.5,179,21.5s148.667-8.167,202.001-27.5c18.666-8,31.832-19,39.5-33c7.666-14,9.668-28.667,6-44
			c-3.673-15.333-10.341-30.5-20-45.5c-9.668-15-22.834-28.5-39.5-40.5C414.481,156.428,396.481,147.761,377.148,142.428z"/>
	</g>
</g>
<g>
</g>
<g>
</g>
<g>
</g>
<g>
</g>
<g>
</g>
<g>
</g>
<g>
</g>
<g>
</g>
<g>
</g>
<g>
</g>
<g>
</g>
<g>
</g>
<g>
</g>
<g>
</g>
<g>
</g>
</svg>
