<?xml version="1.0" encoding="iso-8859-1"?>
<!-- Generator: Adobe Illustrator 18.1.1, SVG Export Plug-In . SVG Version: 6.00 Build 0)  -->
<svg version="1.1" id="Capa_1" xmlns="http://www.w3.org/2000/svg" xmlns:xlink="http://www.w3.org/1999/xlink" x="0px" y="0px"
	 viewBox="0 0 179.006 179.006" style="enable-background:new 0 0 179.006 179.006;" xml:space="preserve">
<g>
	<g>
		<path style="fill:#010002;" d="M133.067,104.665c-1.862-15.168-10.227-26.29-20.58-26.29H66.519
			c-10.353,0-18.724,11.128-20.586,26.29c-6.54,3.741-9.983,10.866-9.983,19.148c0,5.185,1.402,9.893,4.004,13.658v16.63h21.833
			v-8.324h55.432v8.324h21.827v-16.63c2.602-3.753,4.01-8.461,4.01-13.658C143.056,115.525,139.601,108.406,133.067,104.665z
			 M54.454,130.943c-3.938,0-7.136-3.18-7.136-7.13s3.198-7.136,7.136-7.136c3.944,0,7.142,3.186,7.142,7.136
			S58.398,130.943,54.454,130.943z M57.007,101.843c-1.42,0-2.733,0.167-4.01,0.364c2.059-9.953,7.411-17.28,13.527-17.28h45.975
			c6.104,0,11.456,7.327,13.521,17.28c-0.686-0.101-1.408-0.137-2.13-0.185c0-0.06,0.024-0.119,0.024-0.173
			c0-6.295-5.12-11.415-11.421-11.415c-6.289,0-11.409,5.12-11.409,11.415H57.007V101.843z M110.238,130.155H68.78
			c-1.211,0-2.184-0.979-2.184-2.184c0-1.199,0.979-2.178,2.184-2.178h41.458c1.205,0,2.178,0.979,2.178,2.178
			C112.416,129.177,111.437,130.155,110.238,130.155z M110.238,123.908H68.78c-1.211,0-2.184-0.979-2.184-2.184
			s0.979-2.184,2.184-2.184h41.458c1.205,0,2.178,0.979,2.178,2.184S111.437,123.908,110.238,123.908z M105.447,101.843
			c0-3.878,3.162-7.047,7.053-7.047c3.878,0,7.047,3.162,7.047,7.047H105.447z M124.552,130.943c-3.944,0-7.142-3.18-7.142-7.13
			s3.198-7.136,7.142-7.136c3.938,0,7.136,3.186,7.136,7.136C131.677,127.763,128.491,130.943,124.552,130.943z"/>
		<g>
			<rect x="35.95" y="24.011" style="fill:#010002;" width="107.105" height="8.73"/>
		</g>
		<g>
			<path style="fill:#010002;" d="M83.614,57.807c0,3.252,2.631,5.895,5.889,5.895c3.252,0,5.883-2.637,5.883-5.895
				s-5.883-13.581-5.883-13.581S83.614,54.555,83.614,57.807z"/>
			<path style="fill:#010002;" d="M65.874,48.075c0,3.252,2.631,5.889,5.895,5.889c3.252,0,5.895-2.637,5.895-5.889
				c0-3.264-5.895-13.593-5.895-13.593S65.874,44.805,65.874,48.075z"/>
			<path style="fill:#010002;" d="M101.341,48.075c0,3.252,2.631,5.889,5.895,5.889c3.252,0,5.889-2.637,5.889-5.889
				c0-3.264-5.889-13.593-5.889-13.593S101.341,44.805,101.341,48.075z"/>
			<polygon style="fill:#010002;" points="179.006,84.127 179.006,75.385 167.359,75.385 167.359,26.201 11.647,26.201 
				11.647,75.385 0,75.385 0,84.127 11.647,84.127 11.647,85.523 0,85.523 0,94.247 11.647,94.247 11.647,95.637 0,95.637 
				0,104.367 11.647,104.367 11.647,105.769 0,105.769 0,114.498 11.647,114.498 11.647,115.889 0,115.889 0,124.618 
				11.647,124.618 11.647,126.014 0,126.014 0,134.744 11.647,134.744 11.647,136.128 0,136.128 0,144.864 11.647,144.864 
				11.647,146.266 0,146.266 0,154.995 27.656,154.995 27.656,146.266 16.009,146.266 16.009,144.864 27.656,144.864 
				27.656,136.128 16.009,136.128 16.009,134.744 27.656,134.744 27.656,126.014 16.009,126.014 16.009,124.618 27.656,124.618 
				27.656,115.889 16.009,115.889 16.009,114.498 27.656,114.498 27.656,105.769 16.009,105.769 16.009,104.367 27.656,104.367 
				27.656,95.637 16.009,95.637 16.009,94.247 27.656,94.247 27.656,85.523 16.009,85.523 16.009,84.127 27.656,84.127 
				27.656,75.385 16.009,75.385 16.009,30.568 162.991,30.568 162.991,75.385 151.35,75.385 151.35,84.127 162.991,84.127 
				162.991,85.523 151.35,85.523 151.35,94.247 162.991,94.247 162.991,95.637 151.35,95.637 151.35,104.367 162.991,104.367 
				162.991,105.769 151.35,105.769 151.35,114.498 162.991,114.498 162.991,115.889 151.35,115.889 151.35,124.618 162.991,124.618 
				162.991,126.014 151.35,126.014 151.35,134.744 162.991,134.744 162.991,136.128 151.35,136.128 151.35,144.864 162.991,144.864 
				162.991,146.266 151.35,146.266 151.35,154.995 179.006,154.995 179.006,146.266 167.359,146.266 167.359,144.864 
				179.006,144.864 179.006,136.128 167.359,136.128 167.359,134.744 179.006,134.744 179.006,126.014 167.359,126.014 
				167.359,124.618 179.006,124.618 179.006,115.889 167.359,115.889 167.359,114.498 179.006,114.498 179.006,105.769 
				167.359,105.769 167.359,104.367 179.006,104.367 179.006,95.637 167.359,95.637 167.359,94.247 179.006,94.247 179.006,85.523 
				167.359,85.523 167.359,84.127 			"/>
		</g>
	</g>
</g>
<g>
</g>
<g>
</g>
<g>
</g>
<g>
</g>
<g>
</g>
<g>
</g>
<g>
</g>
<g>
</g>
<g>
</g>
<g>
</g>
<g>
</g>
<g>
</g>
<g>
</g>
<g>
</g>
<g>
</g>
</svg>
