<?xml version="1.0" encoding="iso-8859-1"?>
<!-- Generator: Adobe Illustrator 18.1.1, SVG Export Plug-In . SVG Version: 6.00 Build 0)  -->
<svg version="1.1" id="Capa_1" xmlns="http://www.w3.org/2000/svg" xmlns:xlink="http://www.w3.org/1999/xlink" x="0px" y="0px"
	 viewBox="0 0 425.403 425.403" style="enable-background:new 0 0 425.403 425.403;" xml:space="preserve">
<g>
	<path d="M356.637,96.454c-2.006-1.557-4.706-1.831-6.985-0.74l-4.162,2.011c-0.336-1.755-1.337-3.345-2.893-4.348l-1.624-1.048
		l5.389-51.173c0.266-2.525-0.929-4.985-3.09-6.335c-2.155-1.337-4.888-1.344-7.042,0.007l-10.982,6.87
		c-0.158-0.122-0.251-0.296-0.423-0.405l-29.049-18.338c-2.09-1.311-4.739-1.369-6.88-0.13l-29.307,16.962l-4.189-2.705l2.52-17.62
		c0.351-2.46-0.701-4.913-2.726-6.355c-2.025-1.441-4.68-1.629-6.9-0.493l-16.618,8.565c-0.494-0.71-1.135-1.336-1.914-1.827
		L200.708,1.02c-2.087-1.311-4.735-1.363-6.878-0.13l-31.285,18.104l-8.087-5.278c-2.136-1.389-4.888-1.441-7.079-0.117
		c-2.184,1.331-3.417,3.791-3.167,6.335l2.215,22.6l-8.882-5.1c-2.019-1.162-4.491-1.169-6.53-0.052L97.894,55.722
		c-0.053,0.03-0.088,0.08-0.141,0.111l-9.476-6.284c-2.148-1.428-4.913-1.48-7.118-0.15c-2.2,1.331-3.434,3.817-3.167,6.374
		l4.626,44.48l-6.054-4.072c-2.262-1.512-5.212-1.512-7.455,0.026c-2.249,1.532-3.333,4.285-2.743,6.939l33.696,151.323
		c0.341,1.532,1.217,2.895,2.47,3.849l100.064,75.969l-17.551-7.461c-2.012-0.857-4.118-1.292-6.267-1.292
		c-8.829,0-16.007,7.192-16.007,16.053c0,8.835,7.173,16.021,15.991,16.021c1.714,0,3.421-0.273,5.073-0.824l18.983-6.311
		l-27.648,19.501c-1.743,1.246-3.2,3.258-3.2,5.401v43.38c0,2.279,1.59,4.395,3.514,5.615c1.081,0.689,2.53,1.032,3.77,1.032
		c0.967,0,2.044-0.214,2.947-0.636l35.394-16.709l38.974,16.8c2.064,0.883,4.473,0.681,6.349-0.545
		c1.87-1.234,3.052-3.318,3.052-5.557v-42.323c0-2.103-1.039-4.083-2.727-5.336l-21.35-15.842l4.587,1.529
		c1.655,0.552,3.357,0.824,5.07,0.824c8.822,0,15.992-7.186,15.992-16.047c0-8.835-7.181-16.027-16.009-16.027
		c-2.148,0-4.259,0.435-6.271,1.292l-12.531,5.327l59.332-39.574c2.94-1.96,3.829-5.875,2.031-8.912l-0.061-0.104l31.414-25.368
		c1.201-0.967,2.025-2.324,2.337-3.829l31.274-151.324C359.571,100.57,358.63,98.012,356.637,96.454z M290.395,124.352l4.699-45.825
		l36.715,23.705l-0.326,2.264L290.395,124.352z M131.703,133.273l-0.931-13.761l72.398,46.995l-12.837,6.204L131.703,133.273z
		 M121.236,71.406l10.136-5.447l6.394,4.237l-10.016,5.53L121.236,71.406z M170.936,67.062l-2.19,20.795
		c-1.418-0.181-2.878,0.038-4.166,0.782l-9.269,5.364l-15.071-9.994L170.936,67.062z M167.327,102.154l20.642,13.3v0.002
		l-4.875,3.411l-12.397-8.353l-15.526,9.056l-8.465-5.389L167.327,102.154z M233.571,77.138c0,0,0.008-0.005,0.013-0.008
		l7.302-4.226l20.594,12.993l-5.522,3.402l-13.033-9.541l-16.939,8.799l-6.018-3.548L233.571,77.138z M233.473,93.527l9.114-5.128
		l7.504,5.128l-9.683,5.353L233.473,93.527z M280.58,89.749l-3.492,34.021l-24.618-16.705L280.58,89.749z M293.406,61.619
		l-6.713-4.334l8.213-4.413l6.059,4.017L293.406,61.619z M284.359,71.597c0.006,0.07-0.015,0.139-0.007,0.209L273.99,78.19
		c-0.136-0.1-0.211-0.249-0.356-0.34l-13.824-8.722L257.568,54.3L284.359,71.597z M203.91,151.137l-22.886-14.855l15.952-10.248
		c0.548-0.255,1.048-0.574,1.51-0.97l8.855-5.689L203.91,151.137z M161.532,123.629l9.148-5.298l6.738,4.462l-8.632,5.546
		L161.532,123.629z M216.976,159.834c-0.205-0.178-0.343-0.407-0.574-0.562l5.653-52.289c0.273-2.544-0.941-5.024-3.115-6.368
		c-2.175-1.343-4.933-1.317-7.088,0.058l-6.454,4.146l-1.232-14.473l65.135,44.201L216.976,159.834z M328.461,84.252L305.74,69.583
		l25.978-16.25L328.461,84.252z M292.076,36.339l20.771,13.117l-5.69,3.559l-11.888-7.881l-14.953,8.034l-8.186-5.285
		L292.076,36.339z M238.84,58.928c-0.384,0.135-0.774,0.254-1.135,0.462l-7.032,4.069l-22.954-14.981l35.211-18.149L238.84,58.928z
		 M194.918,40.123l-4.931-3.218l6.798-3.656l5.016,3.326L194.918,40.123z M197.011,14.406l21.494,13.561l-9.933,5.12l-11.43-7.574
		l-13.495,7.255l-8.63-5.632L197.011,14.406z M158.794,32.425l58.98,38.498l-10.02,5.798l-7.663-5.199
		c-2.119-1.441-4.878-1.52-7.092-0.241c-2.21,1.298-3.482,3.746-3.265,6.303l2.043,24.004l-10.416-6.571l4.13-39.237
		c0.26-2.46-0.873-4.862-2.937-6.232c-2.064-1.376-4.715-1.486-6.887-0.279l-8.929,4.929l-6.158-3.536L158.794,32.425z
		 M134.177,50.834l18.951,10.88l-8.796,4.856l-12.603-8.349l-16.778,9.016l-4.738-3.142L134.177,50.834z M92.672,68.412
		l49.799,33.022l-8,4.63l-7.613-4.942c-2.119-1.376-4.816-1.434-6.987-0.156c-2.172,1.279-3.434,3.668-3.262,6.18l1.136,16.737
		l-20.755-13.961L92.672,68.412z M181.738,350.476c-0.974,0.324-1.977,0.487-2.976,0.487c-5.151,0-9.344-4.206-9.344-9.4
		c0-5.173,4.2-9.38,9.36-9.38c1.25,0,2.483,0.26,3.667,0.76l22.836,9.704L181.738,350.476z M252.969,408.65l-32.623-13.982
		c-0.841-0.364-1.833-0.545-2.729-0.545c-0.97,0-1.561,0.214-2.46,0.636l-28.188,13.501v-29.47l18.845-13.807l-6.628,16.598
		c-0.662,1.714,0.081,3.642,1.795,4.304c0.393,0.15,0.745,0.221,1.144,0.221c1.334,0,2.563-0.805,3.073-2.122l10.056-26.06
		l0.497-0.361l10.201,26.421c0.512,1.317,1.771,2.122,3.101,2.122c0.395,0,0.804-0.071,1.2-0.221
		c1.708-0.662,2.564-2.59,1.902-4.304l-9.011-23.819l29.825,22.015V408.65z M247.858,332.943c6.089-2.558,13.034,2.188,13.034,8.646
		c0,6.167-6.316,10.899-12.32,8.887l-23.544-7.829L247.858,332.943z M215.693,327.536l-103.185-78.336L82.961,116.512
		l160.82,108.176l35.669,60.323L215.693,327.536z M315.242,249.349l-28.048,22.65l-32.736-55.366c-0.5-0.85-1.188-1.584-2.005-2.136
		l-49.348-33.194l140.205-67.757L315.242,249.349z"/>
</g>
<g>
</g>
<g>
</g>
<g>
</g>
<g>
</g>
<g>
</g>
<g>
</g>
<g>
</g>
<g>
</g>
<g>
</g>
<g>
</g>
<g>
</g>
<g>
</g>
<g>
</g>
<g>
</g>
<g>
</g>
</svg>
