<?xml version="1.0" encoding="iso-8859-1"?>
<!-- Generator: Adobe Illustrator 19.1.0, SVG Export Plug-In . SVG Version: 6.00 Build 0)  -->
<svg version="1.1" id="Capa_1" xmlns="http://www.w3.org/2000/svg" xmlns:xlink="http://www.w3.org/1999/xlink" x="0px" y="0px"
	 viewBox="0 0 63 63" style="enable-background:new 0 0 63 63;" xml:space="preserve">
<g>
	<g>
		<g id="group-7svg">
			<path id="path-1_27_" d="M57.5,57.5c0,3.038-2.463,5.5-5.5,5.5H11c-3.037,0-5.5-2.462-5.5-5.5v-52C5.5,2.462,7.963,0,11,0h41
				c3.037,0,5.5,2.462,5.5,5.5V57.5z M54.5,5.5C54.5,4.119,53.381,3,52,3H11C9.619,3,8.5,4.119,8.5,5.5v52
				c0,1.381,1.119,2.5,2.5,2.5h41c1.381,0,2.5-1.119,2.5-2.5V5.5z"/>
			<path id="path-2_27_" d="M55.573,19h-49C5.745,19,5.5,18.329,5.5,17.5V5.981C5.5,2.907,7.953,0,10.999,0h40.62
				C54.833,0,57.5,3.152,57.5,5.981V17.5C57.5,18.329,56.401,19,55.573,19z M8.5,16h46V5.981C54.5,4.631,52.978,3,51.619,3h-40.62
				C9.632,3,8.5,4.588,8.5,5.981V16z"/>
			<path id="path-3_27_" d="M23,18.5c-0.828,0-1.5-0.671-1.5-1.5V2c0-0.829,0.672-1.5,1.5-1.5s1.5,0.671,1.5,1.5v15
				C24.5,17.829,23.828,18.5,23,18.5z"/>
			<path id="path-4_26_" d="M50.705,9.739c0,1.429-1.157,2.587-2.586,2.587s-2.586-1.158-2.586-2.587
				c0-1.428,1.157-2.586,2.586-2.586S50.705,8.311,50.705,9.739z"/>
			<path id="path-5_26_" d="M43.464,9.739c0,1.429-1.157,2.587-2.586,2.587c-1.429,0-2.586-1.158-2.586-2.587
				c0-1.428,1.157-2.586,2.586-2.586C42.307,7.153,43.464,8.311,43.464,9.739z"/>
			<path id="path-6_22_" d="M36.223,9.739c0,1.429-1.159,2.587-2.586,2.587c-1.429,0-2.586-1.158-2.586-2.587
				c0-1.428,1.157-2.586,2.586-2.586C35.064,7.153,36.223,8.311,36.223,9.739z"/>
			<path id="path-7_18_" d="M30.727,55.334c-7.922,0-14.367-6.444-14.367-14.366s6.445-14.366,14.367-14.366
				c7.921,0,14.367,6.444,14.367,14.366S38.648,55.334,30.727,55.334z M30.727,29.602c-6.268,0-11.367,5.098-11.367,11.366
				c0,6.267,5.099,11.366,11.367,11.366c6.267,0,11.367-5.099,11.367-11.366C42.094,34.7,36.994,29.602,30.727,29.602z"/>
			<path id="path-8_16_" d="M25.252,45.712c-3.508,0-6.553-2.046-8.095-3.684c-0.568-0.603-0.54-1.552,0.064-2.12
				c0.599-0.568,1.548-0.541,2.117,0.06l0,0c0.208,0.217,5.14,5.272,10.189,1.041c5.714-4.781,11.719-2.073,14.094,0.027
				c0.621,0.548,0.68,1.496,0.131,2.117c-0.549,0.62-1.497,0.679-2.117,0.131c-0.198-0.173-5.042-4.277-10.182,0.026
				C29.363,45.059,27.234,45.712,25.252,45.712z"/>
			<path id="path-9_13_" d="M38.809,43.877c0,0.572-0.463,1.035-1.035,1.035c-0.571,0-1.034-0.463-1.034-1.035
				c0-0.571,0.463-1.034,1.034-1.034C38.346,42.843,38.809,43.306,38.809,43.877z"/>
			<path id="path-10_9_" d="M37.774,48.015c0,0.571-0.463,1.035-1.034,1.035s-1.035-0.464-1.035-1.035s0.464-1.034,1.035-1.034
				C37.311,46.981,37.774,47.444,37.774,48.015z"/>
			<path id="path-11_7_" d="M33.637,44.912c0,0.571-0.463,1.034-1.035,1.034s-1.035-0.463-1.035-1.034
				c0-0.572,0.463-1.035,1.035-1.035S33.637,44.34,33.637,44.912z"/>
			<path id="path-12_5_" d="M31.567,49.05c0,0.571-0.463,1.034-1.034,1.034c-0.571,0-1.034-0.463-1.034-1.034
				c0-0.572,0.463-1.035,1.034-1.035S31.567,48.478,31.567,49.05z"/>
			<path id="path-13_3_" d="M25.36,46.981c0,0.571-0.463,1.034-1.034,1.034c-0.571,0-1.034-0.463-1.034-1.034
				s0.463-1.035,1.034-1.035C24.897,45.946,25.36,46.41,25.36,46.981z"/>
		</g>
	</g>
	<g>
	</g>
	<g>
	</g>
	<g>
	</g>
	<g>
	</g>
	<g>
	</g>
	<g>
	</g>
	<g>
	</g>
	<g>
	</g>
	<g>
	</g>
	<g>
	</g>
	<g>
	</g>
	<g>
	</g>
	<g>
	</g>
	<g>
	</g>
	<g>
	</g>
</g>
<g>
</g>
<g>
</g>
<g>
</g>
<g>
</g>
<g>
</g>
<g>
</g>
<g>
</g>
<g>
</g>
<g>
</g>
<g>
</g>
<g>
</g>
<g>
</g>
<g>
</g>
<g>
</g>
<g>
</g>
</svg>
