<?xml version="1.0" encoding="iso-8859-1"?>
<!-- Generator: Adobe Illustrator 18.1.1, SVG Export Plug-In . SVG Version: 6.00 Build 0)  -->
<svg version="1.1" id="Capa_1" xmlns="http://www.w3.org/2000/svg" xmlns:xlink="http://www.w3.org/1999/xlink" x="0px" y="0px"
	 viewBox="0 0 77.015 77.015" style="enable-background:new 0 0 77.015 77.015;" xml:space="preserve">
<g>
	<path d="M46.777,29.984c-0.016-0.016-1.561-1.609-1.566-5.771L43.199,3.078c0.186-0.246,0.364-0.596,0.367-1.035
		c0.002-0.4-0.146-0.992-0.867-1.537c-0.106-0.08-0.229-0.137-0.358-0.164c-0.066-0.014-1.64-0.34-3.266-0.34
		c-0.191,0-0.383,0.004-0.478,0.016c-1.8-0.106-3.764,0.309-3.838,0.324c-0.13,0.027-0.253,0.084-0.358,0.164
		c-0.722,0.545-0.869,1.137-0.867,1.537c0.003,0.439,0.181,0.789,0.367,1.035l-2.005,21.078c-0.768,4.816-1.558,5.809-1.553,5.811
		c-3.64,3.338-3.468,7.094-3.421,7.646l-0.102,32.682c0,3.449,1.771,4.531,2.302,4.777c2.605,1.684,8.148,1.91,9.24,1.939v-0.002
		c0.027,0.004,0.119,0.006,0.147,0.006c0.037,0,0.073-0.002,0.109-0.006c1.269-0.039,6.612-0.295,9.154-1.938
		c0.531-0.246,2.303-1.326,2.303-4.773l0.101-32.682C50.225,37.076,50.405,33.312,46.777,29.984z M48.384,37.466
		c-0.004,0.033-0.006,0.068-0.007,0.102l-0.102,32.727c0,2.6-1.194,3.119-1.219,3.131c-0.076,0.025-0.149,0.06-0.216,0.105
		c-1.792,1.201-6.095,1.621-8.354,1.682c-0.026,0-0.053,0-0.077,0c-2.26-0.06-6.562-0.481-8.355-1.682
		c-0.05-0.033-0.134-0.074-0.189-0.098c-0.051-0.02-1.244-0.539-1.244-3.135l0.102-32.725c0-0.035-0.002-0.072-0.007-0.107
		c-0.004-0.031-0.341-3.252,2.821-6.154c0.362-0.311,1.296-1.602,2.142-6.93L35.731,2.84c0.026-0.275-0.109-0.59-0.314-0.789
		c0.494-0.088,1.552-0.248,2.609-0.248c0.159,0,0.319,0.004,0.571,0.012c1.218-0.061,2.545,0.141,3.104,0.238
		c-0.235,0.19-0.361,0.486-0.332,0.787l2.046,21.459c0,4.926,2.029,6.902,2.126,6.994C48.69,34.181,48.397,37.34,48.384,37.466z"/>
	<path d="M42.321,38.304h-7.337c-1.981,0-3.595,1.613-3.595,3.596v21.846c0,1.982,1.613,3.596,3.595,3.596h7.337
		c1.981,0,3.595-1.613,3.595-3.596V41.9C45.916,39.918,44.302,38.304,42.321,38.304z M44.115,63.746c0,0.99-0.805,1.795-1.794,1.795
		h-7.337c-0.989,0-1.794-0.805-1.794-1.795V41.9c0-0.99,0.805-1.795,1.794-1.795h7.337c0.989,0,1.794,0.805,1.794,1.795V63.746z"/>
</g>
<g>
</g>
<g>
</g>
<g>
</g>
<g>
</g>
<g>
</g>
<g>
</g>
<g>
</g>
<g>
</g>
<g>
</g>
<g>
</g>
<g>
</g>
<g>
</g>
<g>
</g>
<g>
</g>
<g>
</g>
</svg>
